<svg width="636" height="636" viewBox="0 0 636 636" fill="none" xmlns="http://www.w3.org/2000/svg">
<path d="M556.5 397.5V159" stroke="#FF8A00" stroke-width="53" stroke-linecap="round" stroke-linejoin="round"/>
<path d="M490.25 477C507.821 477 524.672 470.02 537.096 457.596C549.52 445.172 556.5 428.321 556.5 410.75C556.5 393.179 549.52 376.328 537.096 363.904C524.672 351.48 507.821 344.5 490.25 344.5C472.679 344.5 455.828 351.48 443.404 363.904C430.98 376.328 424 393.179 424 410.75C424 428.321 430.98 445.172 443.404 457.596C455.828 470.02 472.679 477 490.25 477Z" stroke="#FF8A00" stroke-width="53" stroke-linecap="round" stroke-linejoin="round"/>
<path d="M318 318H79.5" stroke="#FF8A00" stroke-width="53" stroke-linecap="round" stroke-linejoin="round"/>
<path d="M424 159H79.5" stroke="#FF8A00" stroke-width="53" stroke-linecap="round" stroke-linejoin="round"/>
<path d="M318 477H79.5" stroke="#FF8A00" stroke-width="53" stroke-linecap="round" stroke-linejoin="round"/>
</svg>
